<svg version="1.1" id="Layer_1" xmlns="http://www.w3.org/2000/svg" xmlns:xlink="http://www.w3.org/1999/xlink" x="0px" y="0px"
	 width="100%" viewBox="0 0 567 297" enable-background="new 0 0 567 297" xml:space="preserve">
<path fill="#050A30" opacity="1.000000" stroke="none" 
	d="
M384.000000,298.000000 
	C256.000031,298.000000 128.500076,298.000000 1.000086,298.000000 
	C1.000057,199.000061 1.000057,100.000137 1.000028,1.000152 
	C189.999878,1.000101 378.999756,1.000101 567.999756,1.000051 
	C567.999817,99.999847 567.999817,198.999695 567.999878,297.999756 
	C506.833344,298.000000 445.666656,298.000000 384.000000,298.000000 
M66.002495,203.995880 
	C66.002495,203.995880 65.964005,204.008850 66.113609,204.512894 
	C66.404030,204.691010 66.694450,204.869125 67.004913,205.002808 
	C67.004913,205.002808 66.959190,205.019653 67.169106,205.641586 
	C68.569565,206.598206 69.970024,207.554840 71.476456,208.586197 
	C71.476456,208.586197 71.599030,208.628494 72.106285,209.060638 
	C74.098862,209.726456 76.091438,210.392273 78.782860,211.462585 
	C79.921814,211.644760 81.060638,211.984940 82.199745,211.985870 
	C106.841301,212.006149 131.482941,212.006714 156.124359,211.936508 
	C157.726517,211.931946 159.326981,211.327499 160.991608,211.042862 
	C160.991608,211.042862 161.039200,210.984421 161.711517,211.124512 
	C162.745316,210.723328 163.779114,210.322128 165.387634,209.735641 
	C166.075775,209.331436 166.763916,208.927231 168.053345,208.257568 
	C169.519836,207.006378 170.986328,205.755188 172.864777,204.292847 
	C173.079514,204.054886 173.342743,203.898544 174.251022,203.681900 
	C174.560181,203.173813 174.869339,202.665726 175.558792,201.882874 
	C175.795181,201.671249 175.982330,201.422562 176.782028,200.908035 
	C177.250076,199.659882 177.718124,198.411728 178.777832,196.639069 
	C179.176270,195.251633 179.915543,193.865662 179.921539,192.476532 
	C180.000427,174.215668 180.024597,155.953995 179.890106,137.693802 
	C179.878632,136.135071 178.638077,134.585419 177.761353,132.755890 
	C177.761353,132.755890 177.780472,132.411606 177.909225,131.653107 
	C177.277634,130.764084 176.646057,129.875061 176.000000,129.000000 
	C176.000000,129.000000 176.014984,128.987167 175.963745,128.361938 
	C175.546402,127.953110 175.129059,127.544281 174.134750,126.816841 
	C169.697617,124.588806 165.302612,122.269836 160.800003,120.183075 
	C159.266586,119.472412 157.462341,119.346161 155.991714,118.043846 
	C156.005890,111.567001 155.997375,105.089989 156.043259,98.613365 
	C156.068436,95.062126 154.694305,92.845749 150.836960,92.866302 
	C138.553680,92.931732 126.270439,93.008247 113.062828,92.925026 
	C104.930244,92.907593 96.797668,92.889664 88.665085,92.872948 
	C84.552284,92.864494 82.356880,94.593048 82.934380,99.845604 
	C82.988846,101.572487 83.043304,103.299362 82.900017,105.800262 
	C82.965981,106.856712 83.031944,107.913155 82.917160,109.875168 
	C82.964149,112.994362 83.011131,116.113564 82.483528,119.721634 
	C73.923798,120.863579 66.921661,124.527313 61.633453,132.329193 
	C59.087528,136.275238 58.525196,140.359558 58.644020,145.218338 
	C58.996143,159.616867 58.229851,174.040207 58.132549,188.455414 
	C58.120121,190.296936 59.480980,192.147705 60.332088,194.176056 
	C60.332088,194.176056 60.229248,194.372223 60.086723,195.228317 
	C60.830551,196.780869 61.574379,198.333420 62.823605,200.237015 
	C63.479149,200.996902 64.134689,201.756790 64.807571,202.834732 
	C64.807571,202.834732 65.075256,203.007355 65.121391,203.528366 
	C65.411423,203.697235 65.701454,203.866104 66.002495,203.995880 
M198.070831,136.505798 
	C198.070831,146.601501 198.070831,156.697220 198.070831,166.842361 
	C201.813019,166.842361 204.935181,166.842361 208.831299,166.842361 
	C208.831299,159.097473 208.831299,151.511902 208.831299,143.926331 
	C212.814850,148.808395 215.852737,153.749084 218.901688,158.682922 
	C222.212692,164.040771 225.425278,164.000656 228.717682,158.575577 
	C231.900208,153.331635 235.089722,148.091919 238.276154,142.850342 
	C238.610168,142.997742 238.944168,143.145142 239.278168,143.292557 
	C239.278168,151.061905 239.278168,158.831253 239.278168,166.761719 
	C242.844910,166.761719 246.076447,166.761719 249.389206,166.761719 
	C249.389206,151.760223 249.389206,137.017456 249.389206,122.308609 
	C240.520676,121.487747 240.523315,121.489311 236.231064,128.732941 
	C232.281540,135.398148 228.325455,142.059494 223.979645,149.384232 
	C219.341583,141.725998 215.129410,134.822403 210.969421,127.887474 
	C206.868790,121.051453 206.740204,120.973839 198.070831,122.650223 
	C198.070831,126.899117 198.070831,131.204361 198.070831,136.505798 
M341.570557,121.984406 
	C338.956268,121.984406 336.341949,121.984406 333.284058,121.984406 
	C333.284058,129.750671 333.284058,137.035904 333.284058,144.321121 
	C333.284058,151.766617 333.284058,159.212112 333.284058,166.811493 
	C337.239044,166.811493 340.666962,166.811493 344.738403,166.811493 
	C344.738403,162.577759 344.738403,158.536163 344.738403,153.960861 
	C349.863220,153.960861 354.386597,154.341537 358.821808,153.878128 
	C366.951996,153.028625 372.479492,147.300140 373.161774,139.702713 
	C373.903046,131.449142 369.830475,124.945839 361.350952,123.157158 
	C355.273254,121.875114 348.832642,122.313553 341.570557,121.984406 
M454.276825,146.499588 
	C454.276825,153.263519 454.276825,160.027466 454.276825,166.734085 
	C458.165253,166.734085 461.424225,166.734085 464.648956,166.734085 
	C465.317261,157.689362 465.317261,157.689362 469.783936,154.122742 
	C472.802063,157.861252 475.177490,162.640549 479.033691,165.039566 
	C482.562134,167.234680 487.691315,166.856750 492.115143,167.612656 
	C492.224762,167.132004 492.334412,166.651367 492.444031,166.170715 
	C487.475830,159.841049 482.507660,153.511383 477.459473,147.079819 
	C482.281555,142.025558 486.772125,137.318741 491.653076,132.202744 
	C479.478027,131.586090 479.481720,131.589890 471.645447,139.226273 
	C469.676544,141.144943 467.675507,143.030609 464.873352,145.712219 
	C464.873352,136.164871 464.873352,127.660858 464.873352,119.307693 
	C461.061188,119.307693 457.821808,119.307693 454.683868,119.307693 
	C454.501556,119.940384 454.336365,120.247963 454.335297,120.556114 
	C454.306030,128.870590 454.293610,137.185135 454.276825,146.499588 
M258.144379,150.615372 
	C254.908447,155.332870 254.768967,159.779800 257.743561,163.393829 
	C261.757141,168.270203 269.804413,168.869370 278.847229,164.965118 
	C278.793488,165.424561 278.739746,165.884003 278.686005,166.343445 
	C282.083862,166.633774 285.481689,166.924103 289.071594,167.230850 
	C289.071594,159.188431 289.312500,151.716354 288.990723,144.268570 
	C288.758759,138.899445 286.035583,134.759567 280.765442,132.843018 
	C272.437012,129.814270 264.617554,131.151062 256.823029,135.694427 
	C258.146942,138.390320 259.291718,140.721451 260.427948,143.035172 
	C272.091309,137.943497 277.939453,139.269638 277.892456,145.583298 
	C271.314667,147.137573 265.009430,148.627426 258.144379,150.615372 
M380.885956,149.161987 
	C377.248016,151.752563 375.814331,155.201477 376.922791,159.578079 
	C378.027832,163.940948 381.045563,166.650558 385.318115,166.942230 
	C389.301788,167.214172 393.366516,166.380035 397.387665,165.957642 
	C398.249786,165.867081 399.150665,165.096344 399.909241,165.250687 
	C403.226532,165.925552 406.498016,166.825531 410.302460,167.772324 
	C410.302460,160.777527 410.314423,155.137421 410.294403,149.497452 
	C410.289093,148.002686 410.219299,146.506027 410.120544,145.014114 
	C409.819519,140.467972 408.175995,136.630203 404.222931,134.041443 
	C397.336395,129.531616 384.687317,130.556259 378.102020,136.270401 
	C379.215179,138.540482 380.345551,140.845642 381.469147,143.136978 
	C392.398102,137.823837 398.387909,139.112473 399.013428,146.163971 
	C393.183197,147.048874 387.379852,147.929688 380.885956,149.161987 
M426.430908,132.750397 
	C417.519470,136.790756 413.667267,143.492294 415.036621,152.572601 
	C416.266327,160.726822 422.547485,166.352234 431.900604,167.675964 
	C439.856384,168.801941 447.180206,165.133774 450.023712,158.448318 
	C447.460846,157.084351 444.884216,155.713074 442.399261,154.390564 
	C437.264801,159.709732 432.343384,160.449631 428.378632,156.720657 
	C424.897339,153.446365 424.724915,146.104630 428.046295,142.569412 
	C431.824677,138.547775 436.557831,139.220383 442.706940,144.718323 
	C445.216797,143.329880 447.754852,141.925873 450.278748,140.529678 
	C445.639923,132.166809 439.037811,129.961517 426.430908,132.750397 
M495.713470,144.522430 
	C495.713470,151.945541 495.713470,159.368637 495.713470,166.684479 
	C499.589844,166.684479 502.825226,166.684479 506.284973,166.684479 
	C506.284973,162.210648 506.280426,158.056519 506.285919,153.902390 
	C506.299744,143.433868 507.634369,141.843704 517.690125,140.398697 
	C517.690125,137.472549 517.690125,134.534409 517.690125,130.592300 
	C513.538025,131.934326 509.871918,133.119247 506.601044,134.176453 
	C503.645294,130.095596 499.542969,132.702011 495.714417,132.082336 
	C495.714417,136.227737 495.714417,139.881271 495.713470,144.522430 
M325.271912,121.617188 
	C324.447723,120.750069 323.707336,119.259254 322.783356,119.135147 
	C320.220734,118.790939 317.581665,119.015816 315.005310,119.015816 
	C315.005310,135.262833 315.005310,150.963394 315.005310,166.716553 
	C318.539429,166.716553 321.781036,166.716553 325.273224,166.716553 
	C325.273224,151.822006 325.273224,137.211609 325.271912,121.617188 
M296.282959,136.719040 
	C296.282959,146.669952 296.282959,156.620850 296.282959,166.791016 
	C299.991669,166.791016 303.231934,166.791016 306.702271,166.791016 
	C306.702271,155.196915 306.702271,143.801422 306.702271,131.984039 
	C304.209503,131.984039 301.898560,132.181412 299.635498,131.936478 
	C296.468201,131.593658 295.947998,133.227005 296.282959,136.719040 
M294.944611,123.299583 
	C297.016266,128.433014 302.808380,130.511734 306.277802,126.898476 
	C307.779236,125.334831 308.600372,122.118179 308.188995,119.944061 
	C307.514465,116.379227 304.218719,115.050529 300.794678,115.610504 
	C297.149200,116.206688 294.840393,118.460686 294.944611,123.299583 
z"/>
<path fill="#F3F4F6" opacity="1.000000" stroke="none" 
	d="
M198.070831,136.007706 
	C198.070831,131.204361 198.070831,126.899117 198.070831,122.650223 
	C206.740204,120.973839 206.868790,121.051453 210.969421,127.887474 
	C215.129410,134.822403 219.341583,141.725998 223.979645,149.384232 
	C228.325455,142.059494 232.281540,135.398148 236.231064,128.732941 
	C240.523315,121.489311 240.520676,121.487747 249.389206,122.308609 
	C249.389206,137.017456 249.389206,151.760223 249.389206,166.761719 
	C246.076447,166.761719 242.844910,166.761719 239.278168,166.761719 
	C239.278168,158.831253 239.278168,151.061905 239.278168,143.292557 
	C238.944168,143.145142 238.610168,142.997742 238.276154,142.850342 
	C235.089722,148.091919 231.900208,153.331635 228.717682,158.575577 
	C225.425278,164.000656 222.212692,164.040771 218.901688,158.682922 
	C215.852737,153.749084 212.814850,148.808395 208.831299,143.926331 
	C208.831299,151.511902 208.831299,159.097473 208.831299,166.842361 
	C204.935181,166.842361 201.813019,166.842361 198.070831,166.842361 
	C198.070831,156.697220 198.070831,146.601501 198.070831,136.007706 
z"/>
<path fill="#F4F5F6" opacity="1.000000" stroke="none" 
	d="
M342.062256,121.984406 
	C348.832642,122.313553 355.273254,121.875114 361.350952,123.157158 
	C369.830475,124.945839 373.903046,131.449142 373.161774,139.702713 
	C372.479492,147.300140 366.951996,153.028625 358.821808,153.878128 
	C354.386597,154.341537 349.863220,153.960861 344.738403,153.960861 
	C344.738403,158.536163 344.738403,162.577759 344.738403,166.811493 
	C340.666962,166.811493 337.239044,166.811493 333.284058,166.811493 
	C333.284058,159.212112 333.284058,151.766617 333.284058,144.321121 
	C333.284058,137.035904 333.284058,129.750671 333.284058,121.984406 
	C336.341949,121.984406 338.956268,121.984406 342.062256,121.984406 
M347.461517,145.999893 
	C350.744232,145.688583 354.108124,145.722351 357.288086,144.974258 
	C360.860901,144.133759 362.193909,141.130905 362.026917,137.688110 
	C361.858459,134.215866 360.132019,131.503464 356.509155,130.981613 
	C352.672089,130.428925 348.756470,130.421494 344.539856,130.154709 
	C344.539856,135.289856 344.449951,139.597733 344.627441,143.894592 
	C344.657379,144.619400 345.840881,145.296555 347.461517,145.999893 
z"/>
<path fill="#F3F4F6" opacity="1.000000" stroke="none" 
	d="
M454.277588,145.999634 
	C454.293610,137.185135 454.306030,128.870590 454.335297,120.556114 
	C454.336365,120.247963 454.501556,119.940384 454.683868,119.307693 
	C457.821808,119.307693 461.061188,119.307693 464.873352,119.307693 
	C464.873352,127.660858 464.873352,136.164871 464.873352,145.712219 
	C467.675507,143.030609 469.676544,141.144943 471.645447,139.226273 
	C479.481720,131.589890 479.478027,131.586090 491.653076,132.202744 
	C486.772125,137.318741 482.281555,142.025558 477.459473,147.079819 
	C482.507660,153.511383 487.475830,159.841049 492.444031,166.170715 
	C492.334412,166.651367 492.224762,167.132004 492.115143,167.612656 
	C487.691315,166.856750 482.562134,167.234680 479.033691,165.039566 
	C475.177490,162.640549 472.802063,157.861252 469.783936,154.122742 
	C465.317261,157.689362 465.317261,157.689362 464.648956,166.734085 
	C461.424225,166.734085 458.165253,166.734085 454.276825,166.734085 
	C454.276825,160.027466 454.276825,153.263519 454.277588,145.999634 
z"/>
<path fill="#F6F7F9" opacity="1.000000" stroke="none" 
	d="
M258.424316,150.366333 
	C265.009430,148.627426 271.314667,147.137573 277.892456,145.583298 
	C277.939453,139.269638 272.091309,137.943497 260.427948,143.035172 
	C259.291718,140.721451 258.146942,138.390320 256.823029,135.694427 
	C264.617554,131.151062 272.437012,129.814270 280.765442,132.843018 
	C286.035583,134.759567 288.758759,138.899445 288.990723,144.268570 
	C289.312500,151.716354 289.071594,159.188431 289.071594,167.230850 
	C285.481689,166.924103 282.083862,166.633774 278.686005,166.343445 
	C278.739746,165.884003 278.793488,165.424561 278.847229,164.965118 
	C269.804413,168.869370 261.757141,168.270203 257.743561,163.393829 
	C254.768967,159.779800 254.908447,155.332870 258.424316,150.366333 
M267.046234,154.366440 
	C267.117065,155.943726 266.996307,158.849564 267.288483,158.891693 
	C270.045563,159.289230 273.079132,159.833344 275.603821,159.013519 
	C277.148468,158.511948 277.943024,155.700195 279.074432,153.925934 
	C278.660004,153.491180 278.245575,153.056442 277.831116,152.621689 
	C274.479279,153.072403 271.127411,153.523117 267.046234,154.366440 
z"/>
<path fill="#F6F7F9" opacity="1.000000" stroke="none" 
	d="
M381.231201,148.986237 
	C387.379852,147.929688 393.183197,147.048874 399.013428,146.163971 
	C398.387909,139.112473 392.398102,137.823837 381.469147,143.136978 
	C380.345551,140.845642 379.215179,138.540482 378.102020,136.270401 
	C384.687317,130.556259 397.336395,129.531616 404.222931,134.041443 
	C408.175995,136.630203 409.819519,140.467972 410.120544,145.014114 
	C410.219299,146.506027 410.289093,148.002686 410.294403,149.497452 
	C410.314423,155.137421 410.302460,160.777527 410.302460,167.772324 
	C406.498016,166.825531 403.226532,165.925552 399.909241,165.250687 
	C399.150665,165.096344 398.249786,165.867081 397.387665,165.957642 
	C393.366516,166.380035 389.301788,167.214172 385.318115,166.942230 
	C381.045563,166.650558 378.027832,163.940948 376.922791,159.578079 
	C375.814331,155.201477 377.248016,151.752563 381.231201,148.986237 
M388.041412,154.378983 
	C388.150635,155.965622 388.016693,158.855255 388.408386,158.928360 
	C391.036285,159.418793 394.006378,159.982956 396.399689,159.163223 
	C398.038666,158.601837 398.925049,155.843170 400.147858,154.066772 
	C399.747345,153.592880 399.346832,153.118988 398.946289,152.645096 
	C395.549530,153.086411 392.152740,153.527725 388.041412,154.378983 
z"/>
<path fill="#F3F4F6" opacity="1.000000" stroke="none" 
	d="
M426.780609,132.565979 
	C439.037811,129.961517 445.639923,132.166809 450.278748,140.529678 
	C447.754852,141.925873 445.216797,143.329880 442.706940,144.718323 
	C436.557831,139.220383 431.824677,138.547775 428.046295,142.569412 
	C424.724915,146.104630 424.897339,153.446365 428.378632,156.720657 
	C432.343384,160.449631 437.264801,159.709732 442.399261,154.390564 
	C444.884216,155.713074 447.460846,157.084351 450.023712,158.448318 
	C447.180206,165.133774 439.856384,168.801941 431.900604,167.675964 
	C422.547485,166.352234 416.266327,160.726822 415.036621,152.572601 
	C413.667267,143.492294 417.519470,136.790756 426.780609,132.565979 
z"/>
<path fill="#FCBF15" opacity="1.000000" stroke="none" 
	d="
M65.075256,203.007355 
	C65.075256,203.007355 64.807571,202.834732 64.845810,202.302887 
	C63.975014,200.484634 63.065987,199.198227 62.052124,197.751328 
	C61.947292,197.590820 61.903622,197.209900 61.938095,196.729218 
	C61.985271,181.173645 61.997974,166.098740 62.393696,151.034027 
	C64.508049,154.592941 67.467979,158.052856 67.732048,161.707581 
	C68.424347,171.288818 67.908051,180.955276 67.986275,190.586868 
	C67.992691,191.376114 68.856422,192.158386 69.523102,193.214828 
	C70.479019,194.660873 71.233643,195.835999 72.020821,197.364853 
	C74.348701,199.378616 76.644028,201.038651 79.197006,202.774170 
	C79.627594,202.896606 79.800522,202.943542 80.284088,203.270599 
	C94.385193,203.711182 108.175674,203.871658 122.025925,204.382965 
	C122.723099,206.487473 123.360512,208.241165 123.529396,209.995041 
	C105.906921,209.539642 88.752975,209.084061 71.599030,208.628494 
	C71.599030,208.628494 71.476456,208.586197 71.564850,208.170975 
	C70.088562,206.843719 68.523872,205.931686 66.959190,205.019653 
	C66.959190,205.019653 67.004913,205.002808 66.906281,204.782471 
	C66.526436,204.377716 66.245216,204.193283 65.964005,204.008850 
	C65.964005,204.008850 66.002495,203.995880 65.920769,203.784668 
	C65.662743,203.279099 65.408142,203.090408 65.075256,203.007355 
z"/>
<path fill="#F8FAFB" opacity="1.000000" stroke="none" 
	d="
M495.713928,144.028625 
	C495.714417,139.881271 495.714417,136.227737 495.714417,132.082336 
	C499.542969,132.702011 503.645294,130.095596 506.601044,134.176453 
	C509.871918,133.119247 513.538025,131.934326 517.690125,130.592300 
	C517.690125,134.534409 517.690125,137.472549 517.690125,140.398697 
	C507.634369,141.843704 506.299744,143.433868 506.285919,153.902390 
	C506.280426,158.056519 506.284973,162.210648 506.284973,166.684479 
	C502.825226,166.684479 499.589844,166.684479 495.713470,166.684479 
	C495.713470,159.368637 495.713470,151.945541 495.713928,144.028625 
z"/>
<path fill="#FBFCFE" opacity="1.000000" stroke="none" 
	d="
M325.272583,122.109200 
	C325.273224,137.211609 325.273224,151.822006 325.273224,166.716553 
	C321.781036,166.716553 318.539429,166.716553 315.005310,166.716553 
	C315.005310,150.963394 315.005310,135.262833 315.005310,119.015816 
	C317.581665,119.015816 320.220734,118.790939 322.783356,119.135147 
	C323.707336,119.259254 324.447723,120.750069 325.272583,122.109200 
z"/>
<path fill="#E67141" opacity="1.000000" stroke="none" 
	d="
M177.780472,132.411606 
	C177.780472,132.411606 177.761353,132.755890 177.834259,133.255096 
	C177.990677,134.476456 178.074203,135.198624 178.103851,136.371246 
	C178.044327,139.551971 178.038651,142.282257 177.747498,145.044693 
	C177.308456,145.715378 177.154922,146.353912 176.933380,147.330383 
	C175.745010,147.680084 174.394150,148.096771 173.553009,147.617981 
	C171.882202,146.666916 170.492203,145.222504 168.989471,143.601807 
	C168.981369,142.460724 168.969986,141.699799 169.081329,140.625183 
	C169.539749,132.823883 166.099533,129.792831 156.139313,129.207092 
	C150.691589,131.982162 148.121872,130.529266 148.009735,124.883057 
	C147.977402,123.254761 148.004242,121.625275 148.003479,119.540939 
	C148.003021,115.916199 148.003021,112.746872 148.003021,109.151062 
	C151.956299,110.480026 154.635376,111.539680 154.123215,115.693222 
	C153.999512,116.696342 155.193695,117.861977 155.781845,118.952873 
	C157.462341,119.346161 159.266586,119.472412 160.800003,120.183075 
	C165.302612,122.269836 169.697617,124.588806 174.490662,127.265045 
	C175.236038,128.137878 175.625504,128.562531 176.014984,128.987167 
	C176.014984,128.987167 176.000000,129.000000 176.035080,129.320465 
	C176.640274,130.564484 177.210373,131.488037 177.780472,132.411606 
z"/>
<path fill="#F3F4F6" opacity="1.000000" stroke="none" 
	d="
M296.284271,136.245621 
	C295.947998,133.227005 296.468201,131.593658 299.635498,131.936478 
	C301.898560,132.181412 304.209503,131.984039 306.702271,131.984039 
	C306.702271,143.801422 306.702271,155.196915 306.702271,166.791016 
	C303.231934,166.791016 299.991669,166.791016 296.282959,166.791016 
	C296.282959,156.620850 296.282959,146.669952 296.284271,136.245621 
z"/>
<path fill="#DC6C48" opacity="1.000000" stroke="none" 
	d="
M155.886780,118.498360 
	C155.193695,117.861977 153.999512,116.696342 154.123215,115.693222 
	C154.635376,111.539680 151.956299,110.480026 148.003021,109.151062 
	C148.003021,112.746872 148.003021,115.916199 147.802612,119.543610 
	C147.602219,120.001678 147.200562,120.003822 147.125641,119.540909 
	C147.050705,113.500626 147.050705,107.923264 147.050705,101.795113 
	C128.469635,101.795113 110.728462,101.795113 93.328491,101.562904 
	C99.116829,101.192032 104.563957,101.053375 110.471954,100.939240 
	C119.477509,100.535545 128.022186,100.107323 136.566864,99.679100 
	C136.679153,98.917175 136.791443,98.155251 136.903748,97.393326 
	C132.916046,96.261848 128.988007,94.746780 124.922668,94.114494 
	C121.366028,93.561325 117.655022,94.000648 114.004807,93.771301 
	C113.997398,93.541069 113.987183,93.080490 113.987183,93.080490 
	C126.270439,93.008247 138.553680,92.931732 150.836960,92.866302 
	C154.694305,92.845749 156.068436,95.062126 156.043259,98.613365 
	C155.997375,105.089989 156.005890,111.567001 155.886780,118.498360 
z"/>
<path fill="#E99B39" opacity="1.000000" stroke="none" 
	d="
M62.363945,132.148621 
	C66.921661,124.527313 73.923798,120.863579 82.764900,119.821678 
	C83.969139,121.536926 84.892006,123.152138 85.787155,124.718826 
	C87.699875,122.956459 89.289223,121.492050 90.909851,120.480469 
	C90.631561,126.283287 90.322006,131.633270 89.590698,136.987320 
	C85.370789,136.564270 83.625473,138.164566 83.987473,142.060608 
	C84.138710,143.688293 83.999634,145.342972 83.675613,146.949280 
	C83.148918,146.878220 82.939156,146.843231 82.764587,146.355392 
	C82.799782,140.574829 82.799782,135.247086 82.799782,129.979187 
	C77.232826,129.033249 74.273735,132.242294 70.862869,134.861023 
	C69.234764,130.809021 67.281586,129.831802 64.244209,133.201736 
	C63.609367,133.906082 62.641861,134.310577 61.861237,134.508911 
	C62.051189,133.492599 62.207565,132.820618 62.363945,132.148621 
z"/>
<path fill="#EA8344" opacity="1.000000" stroke="none" 
	d="
M113.525009,93.002762 
	C113.987183,93.080490 113.997398,93.541069 113.583908,93.770874 
	C111.309959,94.000671 109.449501,94.000671 107.312393,94.000671 
	C108.426682,96.855476 109.218880,98.885101 110.011078,100.914719 
	C104.563957,101.053375 99.116829,101.192032 93.074326,101.701576 
	C92.244949,102.374855 92.010948,102.677254 91.564247,102.988152 
	C91.351547,102.996651 90.927719,103.036964 90.611832,102.876869 
	C87.904633,101.477585 85.513313,100.238396 83.121994,98.999214 
	C82.356880,94.593048 84.552284,92.864494 88.665085,92.872948 
	C96.797668,92.889664 104.930244,92.907593 113.525009,93.002762 
z"/>
<path fill="#EC9141" opacity="1.000000" stroke="none" 
	d="
M83.028183,99.422409 
	C85.513313,100.238396 87.904633,101.477585 90.627327,103.340317 
	C90.931992,109.318451 90.905289,114.673050 90.878578,120.027641 
	C89.289223,121.492050 87.699875,122.956459 85.787155,124.718826 
	C84.892006,123.152138 83.969139,121.536926 83.052193,119.577240 
	C83.011131,116.113564 82.964149,112.994362 83.235062,109.197235 
	C83.401237,107.354942 83.249504,106.190598 83.097778,105.026245 
	C83.043304,103.299362 82.988846,101.572487 83.028183,99.422409 
z"/>
<path fill="#0E91AB" opacity="1.000000" stroke="none" 
	d="
M294.941467,122.899216 
	C294.840393,118.460686 297.149200,116.206688 300.794678,115.610504 
	C304.218719,115.050529 307.514465,116.379227 308.188995,119.944061 
	C308.600372,122.118179 307.779236,125.334831 306.277802,126.898476 
	C302.808380,130.511734 297.016266,128.433014 294.941467,122.899216 
z"/>
<path fill="#231612" opacity="1.000000" stroke="none" 
	d="
M61.998699,132.238907 
	C62.207565,132.820618 62.051189,133.492599 61.872997,134.523682 
	C61.851181,134.882767 61.886841,134.891571 61.599190,135.082672 
	C61.191879,136.179382 61.072216,137.084991 60.744698,138.354431 
	C60.426441,157.143600 60.316044,175.568893 60.205643,193.994202 
	C59.480980,192.147705 58.120121,190.296936 58.132549,188.455414 
	C58.229851,174.040207 58.996143,159.616867 58.644020,145.218338 
	C58.525196,140.359558 59.087528,136.275238 61.998699,132.238907 
z"/>
<path fill="#E6B53B" opacity="1.000000" stroke="none" 
	d="
M60.268867,194.085129 
	C60.316044,175.568893 60.426441,157.143600 61.006069,138.358170 
	C61.649498,137.998566 61.823689,137.999084 61.997326,138.462891 
	C62.001411,142.958725 62.006046,146.991287 62.010681,151.023834 
	C61.997974,166.098740 61.985271,181.173645 61.654015,196.538071 
	C60.966724,196.009140 60.597988,195.190674 60.229248,194.372223 
	C60.229248,194.372223 60.332088,194.176056 60.268867,194.085129 
z"/>
<path fill="#E6B53B" opacity="1.000000" stroke="none" 
	d="
M71.852661,208.844574 
	C88.752975,209.084061 105.906921,209.539642 123.998260,210.000153 
	C134.289001,210.002563 143.642365,210.000061 153.444122,209.999817 
	C156.308548,210.031982 158.724579,210.061920 161.108185,210.314209 
	C161.075775,210.536545 161.039200,210.984421 161.039200,210.984421 
	C161.039200,210.984421 160.991608,211.042862 160.503387,210.951996 
	C132.704773,210.926773 105.394386,210.992432 78.084007,211.058105 
	C76.091438,210.392273 74.098862,209.726456 71.852661,208.844574 
z"/>
<path fill="#A48142" opacity="1.000000" stroke="none" 
	d="
M78.433434,211.260345 
	C105.394386,210.992432 132.704773,210.926773 160.471680,210.931610 
	C159.326981,211.327499 157.726517,211.931946 156.124359,211.936508 
	C131.482941,212.006714 106.841301,212.006149 82.199745,211.985870 
	C81.060638,211.984940 79.921814,211.644760 78.433434,211.260345 
z"/>
<path fill="#231612" opacity="1.000000" stroke="none" 
	d="
M178.157730,135.920792 
	C178.074203,135.198624 177.990677,134.476456 177.937836,133.392914 
	C178.638077,134.585419 179.878632,136.135071 179.890106,137.693802 
	C180.024597,155.953995 180.000427,174.215668 179.921539,192.476532 
	C179.915543,193.865662 179.176270,195.251633 178.379822,196.816711 
	C177.981796,196.994354 177.777283,196.825348 177.801117,196.422119 
	C178.069534,194.192230 178.314102,192.365585 178.719513,190.124237 
	C178.905502,172.884537 178.945755,156.059555 178.921326,139.234634 
	C178.919724,138.129654 178.423752,137.025391 178.157730,135.920792 
z"/>
<path fill="#EC9141" opacity="1.000000" stroke="none" 
	d="
M172.452835,204.503998 
	C170.986328,205.755188 169.519836,207.006378 167.625214,208.237305 
	C167.197083,208.217041 166.928726,207.922714 167.014221,207.602997 
	C168.702515,206.157379 170.305313,205.031479 172.043213,204.056152 
	C172.178329,204.206741 172.452835,204.503998 172.452835,204.503998 
z"/>
<path fill="#E6B53B" opacity="1.000000" stroke="none" 
	d="
M67.064148,205.330627 
	C68.523872,205.931686 70.088562,206.843719 71.511864,208.133606 
	C69.970024,207.554840 68.569565,206.598206 67.064148,205.330627 
z"/>
<path fill="#E6B53B" opacity="1.000000" stroke="none" 
	d="
M62.156960,197.911835 
	C63.065987,199.198227 63.975014,200.484634 64.837135,202.143860 
	C64.134689,201.756790 63.479149,200.996902 62.519852,199.733154 
	C62.196381,198.790146 62.176666,198.350983 62.156960,197.911835 
z"/>
<path fill="#231612" opacity="1.000000" stroke="none" 
	d="
M62.052124,197.751328 
	C62.176666,198.350983 62.196381,198.790146 62.267151,199.557632 
	C61.574379,198.333420 60.830551,196.780869 60.157986,194.800262 
	C60.597988,195.190674 60.966724,196.009140 61.619545,197.018738 
	C61.903622,197.209900 61.947292,197.590820 62.052124,197.751328 
z"/>
<path fill="#EC9141" opacity="1.000000" stroke="none" 
	d="
M167.324585,208.370026 
	C166.763916,208.927231 166.075775,209.331436 164.794586,209.786407 
	C163.789780,209.825134 163.377991,209.813110 163.070496,209.478271 
	C164.426086,208.744522 165.677399,208.333618 166.928726,207.922714 
	C166.928726,207.922714 167.197083,208.217041 167.324585,208.370026 
z"/>
<path fill="#231612" opacity="1.000000" stroke="none" 
	d="
M178.083984,197.078964 
	C177.718124,198.411728 177.250076,199.659882 176.380157,200.949615 
	C175.978287,200.991180 175.830597,200.851334 175.894012,200.532608 
	C176.564056,199.084381 177.170670,197.954865 177.777283,196.825348 
	C177.777283,196.825348 177.981796,196.994354 178.083984,197.078964 
z"/>
<path fill="#231612" opacity="1.000000" stroke="none" 
	d="
M177.844849,132.032349 
	C177.210373,131.488037 176.640274,130.564484 176.042328,129.313477 
	C176.646057,129.875061 177.277634,130.764084 177.844849,132.032349 
z"/>
<path fill="#EA8344" opacity="1.000000" stroke="none" 
	d="
M82.998901,105.413254 
	C83.249504,106.190598 83.401237,107.354942 83.325439,108.744446 
	C83.031944,107.913155 82.965981,106.856712 82.998901,105.413254 
z"/>
<path fill="#EC9141" opacity="1.000000" stroke="none" 
	d="
M173.654465,203.823822 
	C173.342743,203.898544 173.079514,204.054886 172.658813,204.398422 
	C172.452835,204.503998 172.178329,204.206741 172.134155,203.746063 
	C172.780746,202.932388 173.471497,202.579376 174.113953,202.503937 
	C173.928574,203.128937 173.791519,203.476379 173.654465,203.823822 
z"/>
<path fill="#A48142" opacity="1.000000" stroke="none" 
	d="
M162.966217,209.801086 
	C163.377991,209.813110 163.789780,209.825134 164.507233,209.879044 
	C163.779114,210.322128 162.745316,210.723328 161.375366,211.054474 
	C161.039200,210.984421 161.075775,210.536545 161.415009,210.293808 
	C162.158249,209.967743 162.562225,209.884415 162.966217,209.801086 
z"/>
<path fill="#231612" opacity="1.000000" stroke="none" 
	d="
M173.952744,203.752869 
	C173.791519,203.476379 173.928574,203.128937 174.107086,202.488327 
	C174.148560,202.195160 174.165802,202.169861 174.383209,202.158569 
	C174.600601,202.147278 175.015289,202.014633 175.056030,202.050446 
	C175.096756,202.086273 175.178482,202.157623 175.178497,202.157623 
	C174.869339,202.665726 174.560181,203.173813 173.952744,203.752869 
z"/>
<path fill="#231612" opacity="1.000000" stroke="none" 
	d="
M175.989365,128.674561 
	C175.625504,128.562531 175.236038,128.137878 174.779144,127.424347 
	C175.129059,127.544281 175.546402,127.953110 175.989365,128.674561 
z"/>
<path fill="#E6B53B" opacity="1.000000" stroke="none" 
	d="
M66.038803,204.260864 
	C66.245216,204.193283 66.526436,204.377716 66.896255,204.804688 
	C66.694450,204.869125 66.404030,204.691010 66.038803,204.260864 
z"/>
<path fill="#E6B53B" opacity="1.000000" stroke="none" 
	d="
M65.098328,203.267853 
	C65.408142,203.090408 65.662743,203.279099 65.915268,203.804199 
	C65.701454,203.866104 65.411423,203.697235 65.098328,203.267853 
z"/>
<path fill="#231612" opacity="1.000000" stroke="none" 
	d="
M176.049286,201.064011 
	C175.982330,201.422562 175.795181,201.671249 175.368637,202.020248 
	C175.178482,202.157623 175.096756,202.086273 175.101669,201.802032 
	C175.347916,201.295654 175.589264,201.073486 175.830597,200.851334 
	C175.830597,200.851334 175.978287,200.991180 176.049286,201.064011 
z"/>
<path fill="#0D1234" opacity="1.000000" stroke="none" 
	d="
M346.976440,145.997803 
	C345.840881,145.296555 344.657379,144.619400 344.627441,143.894592 
	C344.449951,139.597733 344.539856,135.289856 344.539856,130.154709 
	C348.756470,130.421494 352.672089,130.428925 356.509155,130.981613 
	C360.132019,131.503464 361.858459,134.215866 362.026917,137.688110 
	C362.193909,141.130905 360.860901,144.133759 357.288086,144.974258 
	C354.108124,145.722351 350.744232,145.688583 346.976440,145.997803 
z"/>
<path fill="#0D1234" opacity="1.000000" stroke="none" 
	d="
M267.410889,154.170135 
	C271.127411,153.523117 274.479279,153.072403 277.831116,152.621689 
	C278.245575,153.056442 278.660004,153.491180 279.074432,153.925934 
	C277.943024,155.700195 277.148468,158.511948 275.603821,159.013519 
	C273.079132,159.833344 270.045563,159.289230 267.288483,158.891693 
	C266.996307,158.849564 267.117065,155.943726 267.410889,154.170135 
z"/>
<path fill="#0D1234" opacity="1.000000" stroke="none" 
	d="
M388.398682,154.174011 
	C392.152740,153.527725 395.549530,153.086411 398.946289,152.645096 
	C399.346832,153.118988 399.747345,153.592880 400.147858,154.066772 
	C398.925049,155.843170 398.038666,158.601837 396.399689,159.163223 
	C394.006378,159.982956 391.036285,159.418793 388.408386,158.928360 
	C388.016693,158.855255 388.150635,155.965622 388.398682,154.174011 
z"/>
<path fill="#F4AC2A" opacity="1.000000" stroke="none" 
	d="
M62.393696,151.034027 
	C62.006046,146.991287 62.001411,142.958725 61.999512,138.074326 
	C61.963776,136.445511 61.925308,135.668533 61.886841,134.891571 
	C61.886841,134.891571 61.851181,134.882767 61.839417,134.868011 
	C62.641861,134.310577 63.609367,133.906082 64.244209,133.201736 
	C67.281586,129.831802 69.234764,130.809021 70.809326,135.142181 
	C70.727272,136.104904 70.421165,136.568207 69.820602,137.259842 
	C68.680977,142.716690 69.756958,143.885040 75.176575,143.745438 
	C75.096542,143.780365 75.216545,143.653473 75.277527,144.002625 
	C77.570923,145.186401 79.803337,146.021057 82.206314,146.802338 
	C82.376884,146.748947 82.729393,146.808228 82.729393,146.808228 
	C82.939156,146.843231 83.148918,146.878220 83.819702,147.265808 
	C86.204887,149.410294 88.129059,151.202164 90.233330,153.213379 
	C90.943909,153.607529 91.474388,153.782318 92.016472,154.339188 
	C93.019112,157.139191 94.010147,159.557129 94.655296,161.974487 
	C93.850586,162.008484 93.391762,162.043060 92.963188,162.037781 
	C92.993431,161.997894 92.942696,162.082794 92.791061,161.815735 
	C92.069443,161.390198 91.499451,161.231705 90.960037,161.036072 
	C90.990616,160.998932 90.946983,161.084290 90.807854,160.763000 
	C89.421051,159.987289 88.173370,159.532883 86.953979,159.037994 
	C86.982262,158.997528 86.946991,159.089310 86.788132,158.825333 
	C86.056190,158.403732 85.483116,158.246124 84.944901,158.045883 
	C84.979759,158.003250 84.937141,158.104736 84.762573,157.840240 
	C84.188583,157.472519 83.789177,157.369278 83.268799,157.283447 
	C83.147835,157.300842 83.009781,157.099152 82.866913,156.844055 
	C82.215469,156.318634 81.706902,156.048294 80.979141,155.589478 
	C80.220139,155.206909 79.680328,155.012833 78.929939,154.634216 
	C78.208565,154.230484 77.697777,154.011307 76.973038,153.604248 
	C76.234306,153.208435 75.709511,153.000534 74.977234,152.620880 
	C74.261086,152.310226 73.752411,152.171310 72.989426,151.710602 
	C71.627129,151.388794 70.519150,151.388794 69.321800,151.388794 
	C69.321800,165.343628 69.321800,179.143768 69.321800,192.943909 
	C68.856422,192.158386 67.992691,191.376114 67.986275,190.586868 
	C67.908051,180.955276 68.424347,171.288818 67.732048,161.707581 
	C67.467979,158.052856 64.508049,154.592941 62.393696,151.034027 
z"/>
<path fill="#231612" opacity="1.000000" stroke="none" 
	d="
M78.939354,202.698685 
	C76.644028,201.038651 74.348701,199.378616 72.105560,197.284973 
	C72.157738,196.851364 72.327225,196.691650 72.633995,196.843781 
	C76.873131,200.132660 81.287857,201.174667 86.354294,201.088013 
	C112.023582,200.649033 137.697281,200.467590 163.210175,200.463654 
	C162.574341,201.117020 162.097763,201.502609 161.454010,201.867035 
	C161.286850,201.845856 161.041718,202.077118 160.597549,202.061340 
	C133.807266,202.183411 107.461159,202.321274 80.910393,202.300903 
	C80.116943,202.328018 79.528145,202.513351 78.939354,202.698685 
z"/>
<path fill="#F4AC2A" opacity="1.000000" stroke="none" 
	d="
M152.995712,209.997559 
	C143.642365,210.000061 134.289001,210.002563 124.466789,209.999969 
	C123.360512,208.241165 122.723099,206.487473 122.498169,204.370605 
	C130.272736,204.009735 137.634827,204.012024 145.057922,204.383438 
	C146.539963,205.503693 148.030136,206.150757 149.362320,207.035675 
	C150.657700,207.896149 151.791153,209.000366 152.995712,209.997559 
z"/>
<path fill="#E6B53B" opacity="1.000000" stroke="none" 
	d="
M144.996902,204.014328 
	C137.634827,204.012024 130.272736,204.009735 122.438400,204.019791 
	C108.175674,203.871658 94.385193,203.711182 80.577942,203.155533 
	C80.745796,202.659943 80.930428,202.559540 81.115051,202.459122 
	C107.461159,202.321274 133.807266,202.183411 160.475525,202.442047 
	C155.530731,203.230453 150.263824,203.622391 144.996902,204.014328 
z"/>
<path fill="#231612" opacity="1.000000" stroke="none" 
	d="
M69.523102,193.214828 
	C69.321800,179.143768 69.321800,165.343628 69.321800,151.388794 
	C70.519150,151.388794 71.627129,151.388794 72.942169,151.920166 
	C73.149231,152.451553 73.127518,152.882095 72.763123,152.938141 
	C71.831161,153.865173 70.778564,154.732544 70.772018,155.607742 
	C70.714417,163.309906 70.686203,171.019180 70.966820,178.714767 
	C71.185646,184.715622 71.856972,190.699966 72.327225,196.691650 
	C72.327225,196.691650 72.157738,196.851364 72.072998,196.931244 
	C71.233643,195.835999 70.479019,194.660873 69.523102,193.214828 
z"/>
<path fill="#755830" opacity="1.000000" stroke="none" 
	d="
M80.910393,202.300903 
	C80.930428,202.559540 80.745796,202.659943 80.267303,202.875427 
	C79.800522,202.943542 79.627594,202.896606 79.197006,202.774170 
	C79.528145,202.513351 80.116943,202.328018 80.910393,202.300903 
z"/>
<path fill="#EA8344" opacity="1.000000" stroke="none" 
	d="
M168.986176,143.981949 
	C170.492203,145.222504 171.882202,146.666916 173.553009,147.617981 
	C174.394150,148.096771 175.745010,147.680084 177.187973,147.334564 
	C177.680283,147.004547 177.850021,147.008301 178.032364,147.479813 
	C178.043808,158.966751 178.042664,169.985916 177.699890,180.937347 
	C175.969513,179.030228 174.580734,177.190872 172.259827,174.116943 
	C171.702942,178.046280 171.243362,180.527191 171.026718,183.029144 
	C170.804352,185.597046 170.819458,188.185501 170.730621,190.764969 
	C170.507889,190.643967 170.256027,190.554901 170.074188,190.389053 
	C169.977600,190.300903 170.002487,190.079620 169.870483,189.465927 
	C169.839783,182.342865 169.911148,175.672333 170.263702,168.702499 
	C171.016739,164.177338 171.724594,159.957550 171.834122,155.722305 
	C171.873154,154.212006 170.462097,152.664200 169.505249,151.121765 
	C169.297531,151.110016 168.959839,150.866913 168.856964,150.732285 
	C168.511383,150.740707 168.268707,150.883759 168.013626,151.013397 
	C168.001221,151.000000 168.021530,151.027908 167.683380,151.011169 
	C166.893738,150.998093 166.442245,151.001740 165.776154,151.186310 
	C165.496170,151.725113 165.430771,152.083008 165.319305,152.425781 
	C165.273254,152.410660 165.325760,152.329147 165.053726,152.325256 
	C164.517654,152.554810 164.253616,152.788269 163.899246,153.129562 
	C163.808914,153.237396 163.540405,153.153473 163.141357,153.140366 
	C161.167786,154.095963 159.593262,155.064667 158.012390,156.014496 
	C158.006027,155.995621 158.035522,156.023865 157.637405,156.011993 
	C153.182236,156.679062 149.125168,157.357971 144.840118,157.903625 
	C144.400757,157.492676 144.189377,157.214966 144.121277,156.647430 
	C144.821960,155.185196 145.379379,154.012817 145.963806,152.636902 
	C145.990814,152.433365 146.028000,152.024399 146.204391,151.991837 
	C146.380783,151.959274 146.737869,151.924927 147.019623,151.794800 
	C147.530106,151.109100 147.758835,150.553558 147.990875,149.533005 
	C147.996994,146.268845 148.186539,143.454361 147.958771,140.674088 
	C147.617493,136.507904 149.543564,135.131500 154.004684,135.509262 
	C154.004684,137.608780 153.720688,139.594696 154.084000,141.454102 
	C154.452286,143.338928 155.460266,145.098755 156.371185,146.899185 
	C156.554321,146.885040 156.916122,146.948563 157.220642,146.946762 
	C158.016022,146.632233 158.506897,146.319504 158.998657,146.002777 
	C158.999573,145.998779 159.008469,146.000748 159.415619,146.007294 
	C162.877243,145.336548 165.931702,144.659256 168.986176,143.981949 
z"/>
<path fill="#170D25" opacity="1.000000" stroke="none" 
	d="
M156.916122,146.948563 
	C156.916122,146.948563 156.554321,146.885040 156.308868,146.442261 
	C156.212631,140.375687 156.361832,134.751923 156.511032,129.128143 
	C166.099533,129.792831 169.539749,132.823883 168.720490,140.650742 
	C165.160751,142.660248 162.084610,144.330490 159.008469,146.000748 
	C159.008469,146.000748 158.999573,145.998779 158.698273,146.017273 
	C157.903366,146.340042 157.409744,146.644302 156.916122,146.948563 
z"/>
<path fill="#E17C47" opacity="1.000000" stroke="none" 
	d="
M156.139313,129.207092 
	C156.361832,134.751923 156.212631,140.375687 156.125732,146.456390 
	C155.460266,145.098755 154.452286,143.338928 154.084000,141.454102 
	C153.720688,139.594696 154.004684,137.608780 154.004684,135.509262 
	C149.543564,135.131500 147.617493,136.507904 147.958771,140.674088 
	C148.186539,143.454361 147.996994,146.268845 147.787033,149.531799 
	C147.579849,149.995590 147.171860,149.990128 147.106018,149.526276 
	C147.093628,139.376221 147.147095,129.690018 147.200562,120.003822 
	C147.200562,120.003822 147.602219,120.001678 147.803085,119.999008 
	C148.004242,121.625275 147.977402,123.254761 148.009735,124.883057 
	C148.121872,130.529266 150.691589,131.982162 156.139313,129.207092 
z"/>
<path fill="#A48142" opacity="1.000000" stroke="none" 
	d="
M178.041504,181.005081 
	C178.042664,169.985916 178.043808,158.966751 178.047516,147.146484 
	C178.044357,145.901093 178.038666,145.456818 178.032990,145.012527 
	C178.038651,142.282257 178.044327,139.551971 178.103851,136.371246 
	C178.423752,137.025391 178.919724,138.129654 178.921326,139.234634 
	C178.945755,156.059555 178.905502,172.884537 178.578918,189.642700 
	C178.198807,186.718948 178.120148,183.862015 178.041504,181.005081 
z"/>
<path fill="#E17C47" opacity="1.000000" stroke="none" 
	d="
M159.415619,146.007294 
	C162.084610,144.330490 165.160751,142.660248 168.597748,140.964417 
	C168.969986,141.699799 168.981369,142.460724 168.989471,143.601807 
	C165.931702,144.659256 162.877243,145.336548 159.415619,146.007294 
z"/>
<path fill="#E17C47" opacity="1.000000" stroke="none" 
	d="
M177.747498,145.044693 
	C178.038666,145.456818 178.044357,145.901093 178.034912,146.678711 
	C177.850021,147.008301 177.680283,147.004547 177.255966,146.996613 
	C177.154922,146.353912 177.308456,145.715378 177.747498,145.044693 
z"/>
<path fill="#E67141" opacity="1.000000" stroke="none" 
	d="
M110.471954,100.939240 
	C109.218880,98.885101 108.426682,96.855476 107.312393,94.000671 
	C109.449501,94.000671 111.309959,94.000671 113.591309,94.001099 
	C117.655022,94.000648 121.366028,93.561325 124.922668,94.114494 
	C128.988007,94.746780 132.916046,96.261848 136.903748,97.393326 
	C136.791443,98.155251 136.679153,98.917175 136.566864,99.679100 
	C128.022186,100.107323 119.477509,100.535545 110.471954,100.939240 
z"/>
<path fill="#32100F" opacity="1.000000" stroke="none" 
	d="
M147.125641,119.540909 
	C147.147095,129.690018 147.093628,139.376221 147.027435,149.847565 
	C146.922424,151.063461 146.830154,151.494186 146.737869,151.924927 
	C146.737869,151.924927 146.380783,151.959274 146.134796,151.938599 
	C145.888794,151.917923 145.748825,151.812805 145.828003,151.365234 
	C145.948395,136.619690 145.892960,122.320366 146.092041,108.024590 
	C146.148819,103.945900 144.364914,102.930138 140.666962,102.964806 
	C126.534996,103.097321 112.400208,103.119713 98.268623,102.974358 
	C94.454964,102.935135 92.906303,104.126511 92.958389,108.111641 
	C93.130051,121.244919 92.995934,134.381958 93.065704,147.517105 
	C93.074348,149.143204 93.603981,150.766541 93.496933,152.224411 
	C92.732994,150.389587 92.060822,148.724716 92.043182,147.052933 
	C91.888206,132.362549 91.849846,117.670914 91.776947,102.979652 
	C92.010948,102.677254 92.244949,102.374855 92.733109,101.933784 
	C110.728462,101.795113 128.469635,101.795113 147.050705,101.795113 
	C147.050705,107.923264 147.050705,113.500626 147.125641,119.540909 
z"/>
<path fill="#170D25" opacity="1.000000" stroke="none" 
	d="
M82.764587,146.355392 
	C82.729393,146.808228 82.376884,146.748947 81.973114,146.559113 
	C79.451744,145.464020 77.334145,144.558746 75.216545,143.653473 
	C75.216545,143.653473 75.096542,143.780365 74.962296,143.471191 
	C72.646019,141.588272 68.590103,141.455124 70.115067,137.031525 
	C70.421165,136.568207 70.727272,136.104904 71.086914,135.360443 
	C74.273735,132.242294 77.232826,129.033249 82.799782,129.979187 
	C82.799782,135.247086 82.799782,140.574829 82.764587,146.355392 
z"/>
<path fill="#DA8E46" opacity="1.000000" stroke="none" 
	d="
M91.564247,102.988152 
	C91.849846,117.670914 91.888206,132.362549 92.043182,147.052933 
	C92.060822,148.724716 92.732994,150.389587 93.728195,152.465012 
	C102.235435,156.916809 110.116158,160.961243 117.773224,165.256714 
	C116.374741,165.214798 115.111359,165.108261 114.039330,164.598953 
	C106.672119,161.098801 99.344940,157.514389 92.004875,153.957108 
	C91.474388,153.782318 90.943909,153.607529 90.231064,152.747162 
	C90.036613,147.035492 90.024529,142.009369 90.012444,136.983261 
	C90.322006,131.633270 90.631561,126.283287 90.909851,120.480469 
	C90.905289,114.673050 90.931992,109.318451 90.943207,103.500412 
	C90.927719,103.036964 91.351547,102.996651 91.564247,102.988152 
z"/>
<path fill="#F7A42D" opacity="1.000000" stroke="none" 
	d="
M89.590698,136.987320 
	C90.024529,142.009369 90.036613,147.035492 90.050964,152.527802 
	C88.129059,151.202164 86.204887,149.410294 84.136635,147.301910 
	C83.999634,145.342972 84.138710,143.688293 83.987473,142.060608 
	C83.625473,138.164566 85.370789,136.564270 89.590698,136.987320 
z"/>
<path fill="#E99B39" opacity="1.000000" stroke="none" 
	d="
M61.599190,135.082672 
	C61.925308,135.668533 61.963776,136.445511 62.000061,137.611023 
	C61.823689,137.999084 61.649498,137.998566 61.213928,137.994324 
	C61.072216,137.084991 61.191879,136.179382 61.599190,135.082672 
z"/>
<path fill="#F7A42D" opacity="1.000000" stroke="none" 
	d="
M145.057922,204.383438 
	C150.263824,203.622391 155.530731,203.230453 160.919678,202.457825 
	C161.041718,202.077118 161.286850,201.845856 161.846207,201.892288 
	C163.237320,201.231812 164.069092,200.524887 164.961090,199.592072 
	C165.205139,199.079987 165.466949,198.930023 166.162689,198.894989 
	C170.973297,196.243668 172.866348,197.059631 174.165802,202.169861 
	C174.165802,202.169861 174.148560,202.195160 174.155411,202.210770 
	C173.471497,202.579376 172.780746,202.932388 171.999054,203.595490 
	C170.305313,205.031479 168.702515,206.157379 167.014221,207.602997 
	C165.677399,208.333618 164.426086,208.744522 163.070496,209.478271 
	C162.562225,209.884415 162.158249,209.967743 161.447418,210.071472 
	C158.724579,210.061920 156.308548,210.031982 153.444122,209.999817 
	C151.791153,209.000366 150.657700,207.896149 149.362320,207.035675 
	C148.030136,206.150757 146.539963,205.503693 145.057922,204.383438 
z"/>
<path fill="#EC9141" opacity="1.000000" stroke="none" 
	d="
M174.383209,202.158569 
	C172.866348,197.059631 170.973297,196.243668 166.302124,198.566956 
	C167.381256,195.479660 168.676895,192.699051 169.972534,189.918442 
	C170.002487,190.079620 169.977600,190.300903 170.074188,190.389053 
	C170.256027,190.554901 170.507889,190.643967 170.730621,190.764969 
	C170.819458,188.185501 170.804352,185.597046 171.026718,183.029144 
	C171.243362,180.527191 171.702942,178.046280 172.259827,174.116943 
	C174.580734,177.190872 175.969513,179.030228 177.699890,180.937347 
	C178.120148,183.862015 178.198807,186.718948 178.418060,190.057404 
	C178.314102,192.365585 178.069534,194.192230 177.801132,196.422119 
	C177.170670,197.954865 176.564056,199.084381 175.894012,200.532608 
	C175.589264,201.073486 175.347916,201.295654 175.060944,201.766220 
	C175.015289,202.014633 174.600601,202.147278 174.383209,202.158569 
z"/>
<path fill="#080B2E" opacity="1.000000" stroke="none" 
	d="
M169.870483,189.465927 
	C168.676895,192.699051 167.381256,195.479660 165.946198,198.588287 
	C165.466949,198.930023 165.205139,199.079987 164.701477,199.637146 
	C164.044205,200.004028 163.706818,200.099945 163.369431,200.195877 
	C137.697281,200.467590 112.023582,200.649033 86.354294,201.088013 
	C81.287857,201.174667 76.873131,200.132660 72.633995,196.843781 
	C71.856972,190.699966 71.185646,184.715622 70.966820,178.714767 
	C70.686203,171.019180 70.714417,163.309906 70.772018,155.607742 
	C70.778564,154.732544 71.831161,153.865173 72.741997,152.963196 
	C73.085274,152.932205 73.044327,152.881149 73.192505,153.213776 
	C74.650719,154.008514 75.960754,154.470612 77.443832,154.938629 
	C77.616859,154.944565 77.915230,155.120255 78.073914,155.321442 
	C78.541824,155.651779 78.851067,155.780899 79.111877,155.923096 
	C79.063454,155.936172 79.055229,155.836197 79.206963,156.117859 
	C79.946724,156.570038 80.534744,156.740540 81.089607,156.938690 
	C81.056442,156.966324 81.057281,156.879990 81.101898,157.057922 
	C81.445068,157.225845 81.743622,157.215820 82.285507,157.192230 
	C82.528854,157.178665 83.009781,157.099152 83.009781,157.099152 
	C83.009781,157.099152 83.147835,157.300842 83.453835,157.534637 
	C84.152267,157.880524 84.544708,157.992630 84.937141,158.104736 
	C84.937141,158.104736 84.979759,158.003250 85.103485,158.306641 
	C85.800468,158.769791 86.373734,158.929550 86.946991,159.089310 
	C86.946991,159.089310 86.982262,158.997528 87.142937,159.308441 
	C88.518074,160.107666 89.732529,160.595978 90.946983,161.084290 
	C90.946983,161.084290 90.990616,160.998932 91.118927,161.293152 
	C91.812393,161.752518 92.377541,161.917648 92.942696,162.082794 
	C92.942696,162.082794 92.993431,161.997894 93.153671,162.304718 
	C94.523453,163.104019 95.732994,163.596512 96.967094,164.044525 
	C96.991653,164.000031 96.925262,164.077377 97.117966,164.359650 
	C99.851944,165.793335 102.393219,166.944748 104.959778,168.049866 
	C104.985054,168.003571 104.909561,168.077301 105.090004,168.354889 
	C106.487000,169.124496 107.703552,169.616547 108.960594,170.055481 
	C109.001091,170.002380 108.914688,170.103546 109.111145,170.381531 
	C111.847282,171.798874 114.386955,172.938248 116.959351,174.038513 
	C116.992088,173.999390 116.932892,174.079025 117.170670,174.370483 
	C120.125298,173.866592 122.842148,173.071259 125.702698,172.277954 
	C125.846413,172.280014 126.021324,172.051926 126.377724,172.036438 
	C129.169830,170.691406 131.605530,169.361862 134.024231,168.014130 
	C134.007217,167.995941 134.026871,168.040161 134.343811,168.029083 
	C135.541397,167.477432 136.422012,166.936890 137.327209,166.386887 
	C137.351761,166.377441 137.383347,166.419540 137.733688,166.365677 
	C144.734528,162.882492 151.385025,159.453171 158.035522,156.023865 
	C158.035522,156.023865 158.006027,155.995621 158.361099,155.990967 
	C160.324249,155.042038 161.932327,154.097763 163.540405,153.153473 
	C163.540405,153.153473 163.808914,153.237396 164.174255,153.131317 
	C164.801651,152.793228 165.063705,152.561188 165.325760,152.329147 
	C165.325760,152.329147 165.273254,152.410660 165.510437,152.392914 
	C165.747604,152.375183 165.984283,152.065414 166.283600,152.031830 
	C167.062439,151.674805 167.541992,151.351349 168.021530,151.027908 
	C168.021530,151.027908 168.001221,151.000000 168.255249,151.021698 
	C168.509293,151.043381 168.959839,150.866913 168.959839,150.866913 
	C168.959839,150.866913 169.297531,151.110016 169.484955,151.577698 
	C169.775757,157.697510 169.879135,163.349655 169.982498,169.001785 
	C169.911148,175.672333 169.839783,182.342865 169.870483,189.465927 
z"/>
<path fill="#F7A42D" opacity="1.000000" stroke="none" 
	d="
M126.021324,172.051926 
	C126.021324,172.051926 125.846413,172.280014 125.285080,172.204300 
	C122.126793,172.778732 119.529846,173.428879 116.932892,174.079025 
	C116.932892,174.079025 116.992088,173.999390 116.923172,173.684601 
	C114.207733,172.281052 111.561211,171.192291 108.914688,170.103546 
	C108.914688,170.103546 109.001091,170.002380 108.833267,169.728424 
	C107.413483,168.995392 106.161522,168.536346 104.909561,168.077301 
	C104.909561,168.077301 104.985054,168.003571 104.920853,167.695175 
	C102.212860,166.283646 99.569061,165.180511 96.925262,164.077377 
	C96.925262,164.077377 96.991653,164.000031 96.874458,163.762131 
	C96.171906,163.007843 95.586548,162.491440 95.001190,161.975052 
	C94.010147,159.557129 93.019112,157.139191 92.016472,154.339188 
	C99.344940,157.514389 106.672119,161.098801 114.039330,164.598953 
	C115.111359,165.108261 116.374741,165.214798 118.119637,165.271729 
	C119.147438,165.099457 119.605179,165.163177 120.325531,165.448029 
	C121.597710,164.979294 122.607262,164.289444 123.643410,163.625031 
	C123.670006,163.650482 123.702080,163.584198 124.100464,163.710052 
	C125.327942,163.866730 126.157036,163.897537 127.180634,164.196289 
	C128.258423,165.651123 129.141678,166.838013 129.714737,168.161896 
	C128.276794,169.549881 127.149055,170.800903 126.021324,172.051926 
z"/>
<path fill="#E99B39" opacity="1.000000" stroke="none" 
	d="
M69.820610,137.259842 
	C68.590103,141.455124 72.646019,141.588272 75.042336,143.436264 
	C69.756958,143.885040 68.680977,142.716690 69.820610,137.259842 
z"/>
<path fill="#E99B39" opacity="1.000000" stroke="none" 
	d="
M75.277527,144.002625 
	C77.334145,144.558746 79.451744,145.464020 81.802544,146.612488 
	C79.803337,146.021057 77.570923,145.186401 75.277527,144.002625 
z"/>
<path fill="#DA8E46" opacity="1.000000" stroke="none" 
	d="
M94.655296,161.974487 
	C95.586548,162.491440 96.171906,163.007843 96.849899,163.806625 
	C95.732994,163.596512 94.523453,163.104019 93.123428,162.344589 
	C93.391762,162.043060 93.850586,162.008484 94.655296,161.974487 
z"/>
<path fill="#DA8E46" opacity="1.000000" stroke="none" 
	d="
M90.807854,160.763000 
	C89.732529,160.595978 88.518074,160.107666 87.114655,159.348907 
	C88.173370,159.532883 89.421051,159.987289 90.807854,160.763000 
z"/>
<path fill="#DA8E46" opacity="1.000000" stroke="none" 
	d="
M79.140518,154.818771 
	C79.680328,155.012833 80.220139,155.206909 80.906471,155.671204 
	C81.052994,155.941437 80.907104,156.099762 80.596397,156.072662 
	C79.875534,155.975784 79.465385,155.905991 79.055229,155.836197 
	C79.055229,155.836197 79.063454,155.936172 79.071396,155.707947 
	C79.079338,155.479706 78.941345,155.064392 78.991882,155.003601 
	C79.042419,154.942795 79.140518,154.818771 79.140518,154.818771 
z"/>
<path fill="#DA8E46" opacity="1.000000" stroke="none" 
	d="
M92.791061,161.815735 
	C92.377541,161.917648 91.812393,161.752518 91.088348,161.330292 
	C91.499451,161.231705 92.069443,161.390198 92.791061,161.815735 
z"/>
<path fill="#DA8E46" opacity="1.000000" stroke="none" 
	d="
M73.106400,152.907150 
	C73.127518,152.882095 73.149231,152.451553 73.196487,152.241974 
	C73.752411,152.171310 74.261086,152.310226 74.909546,152.700287 
	C75.049339,152.951416 74.913750,153.110031 74.600418,153.080566 
	C73.872841,152.994431 73.458580,152.937790 73.044327,152.881149 
	C73.044327,152.881149 73.085274,152.932205 73.106400,152.907150 
z"/>
<path fill="#DA8E46" opacity="1.000000" stroke="none" 
	d="
M86.788132,158.825333 
	C86.373734,158.929550 85.800468,158.769791 85.068626,158.349274 
	C85.483116,158.246124 86.056190,158.403732 86.788132,158.825333 
z"/>
<path fill="#DA8E46" opacity="1.000000" stroke="none" 
	d="
M75.117027,152.872025 
	C75.709511,153.000534 76.234306,153.208435 76.907822,153.677551 
	C77.056557,153.938751 76.925804,154.080994 76.639465,154.042938 
	C75.873337,153.706604 75.393547,153.408325 74.913750,153.110031 
	C74.913750,153.110031 75.049339,152.951416 75.117027,152.872025 
z"/>
<path fill="#DA8E46" opacity="1.000000" stroke="none" 
	d="
M77.915230,155.120255 
	C77.915230,155.120255 77.616859,154.944565 77.365814,154.722046 
	C77.114769,154.499512 76.925804,154.080994 76.925804,154.080994 
	C76.925804,154.080994 77.056557,153.938751 77.121773,153.865448 
	C77.697777,154.011307 78.208565,154.230484 78.929939,154.634216 
	C79.140518,154.818771 79.042419,154.942795 78.733833,154.989777 
	C78.255234,155.064606 78.085228,155.092438 77.915230,155.120255 
z"/>
<path fill="#DA8E46" opacity="1.000000" stroke="none" 
	d="
M82.866913,156.844055 
	C83.009781,157.099152 82.528854,157.178665 82.060715,157.045074 
	C81.414146,156.900986 81.235718,156.890488 81.057281,156.879990 
	C81.057281,156.879990 81.056442,156.966324 81.049271,156.732269 
	C81.042107,156.498215 80.907104,156.099762 80.907104,156.099762 
	C80.907104,156.099762 81.052994,155.941437 81.125671,155.859695 
	C81.706902,156.048294 82.215469,156.318634 82.866913,156.844055 
z"/>
<path fill="#DA8E46" opacity="1.000000" stroke="none" 
	d="
M84.762573,157.840240 
	C84.544708,157.992630 84.152267,157.880524 83.574799,157.517242 
	C83.789177,157.369278 84.188583,157.472519 84.762573,157.840240 
z"/>
<path fill="#E6B53B" opacity="1.000000" stroke="none" 
	d="
M163.210175,200.463638 
	C163.706818,200.099945 164.044205,200.004028 164.641235,199.863037 
	C164.069092,200.524887 163.237320,201.231812 162.013367,201.913467 
	C162.097763,201.502609 162.574341,201.117020 163.210175,200.463638 
z"/>
<path fill="#E99B39" opacity="1.000000" stroke="none" 
	d="
M130.024948,168.024918 
	C129.141678,166.838013 128.258423,165.651123 127.183617,163.871658 
	C126.989929,162.844513 126.987778,162.409912 127.067093,161.861679 
	C127.148560,161.748032 127.427650,161.765915 127.839508,161.822159 
	C130.491211,160.572769 132.731064,159.267136 134.981873,157.972321 
	C134.992828,157.983154 134.963882,157.965286 135.383179,157.984406 
	C138.527664,157.648117 141.252838,157.292694 143.978012,156.937286 
	C144.189377,157.214966 144.400757,157.492676 144.808105,158.277100 
	C144.291199,159.531174 143.594406,160.294662 142.862289,161.022659 
	C141.044556,162.830261 139.210709,164.621643 137.383347,166.419540 
	C137.383347,166.419540 137.351761,166.377441 136.961273,166.275635 
	C135.722794,166.795944 134.874832,167.418045 134.026871,168.040161 
	C134.026871,168.040161 134.007217,167.995941 133.622437,167.994904 
	C132.166763,168.004227 131.095856,168.014572 130.024948,168.024918 
z"/>
<path fill="#DA8E46" opacity="1.000000" stroke="none" 
	d="
M137.733688,166.365677 
	C139.210709,164.621643 141.044556,162.830261 142.862289,161.022659 
	C143.594406,160.294662 144.291199,159.531174 145.036102,158.410370 
	C149.125168,157.357971 153.182236,156.679062 157.637405,156.011993 
	C151.385025,159.453171 144.734528,162.882492 137.733688,166.365677 
z"/>
<path fill="#DA8E46" opacity="1.000000" stroke="none" 
	d="
M144.121277,156.647430 
	C141.252838,157.292694 138.527664,157.648117 135.592392,157.709396 
	C138.573853,155.855347 141.765411,154.295441 145.196075,152.816559 
	C145.602386,152.878525 145.769592,152.859482 145.936813,152.840439 
	C145.379379,154.012817 144.821960,155.185196 144.121277,156.647430 
z"/>
<path fill="#E17C47" opacity="1.000000" stroke="none" 
	d="
M170.263702,168.702499 
	C169.879135,163.349655 169.775757,157.697510 169.692657,151.589447 
	C170.462097,152.664200 171.873154,154.212006 171.834122,155.722305 
	C171.724594,159.957550 171.016739,164.177338 170.263702,168.702499 
z"/>
<path fill="#DA8E46" opacity="1.000000" stroke="none" 
	d="
M163.141357,153.140366 
	C161.932327,154.097763 160.324249,155.042038 158.367462,156.009857 
	C159.593262,155.064667 161.167786,154.095963 163.141357,153.140366 
z"/>
<path fill="#DA8E46" opacity="1.000000" stroke="none" 
	d="
M147.019623,151.794800 
	C146.830154,151.494186 146.922424,151.063461 147.093292,150.311432 
	C147.171860,149.990128 147.579849,149.995590 147.783691,149.996796 
	C147.758835,150.553558 147.530106,151.109100 147.019623,151.794800 
z"/>
<path fill="#E17C47" opacity="1.000000" stroke="none" 
	d="
M167.683380,151.011169 
	C167.541992,151.351349 167.062439,151.674805 166.287521,151.766754 
	C165.991684,151.358658 165.991226,151.182022 165.990753,151.005386 
	C166.442245,151.001740 166.893738,150.998093 167.683380,151.011169 
z"/>
<path fill="#E17C47" opacity="1.000000" stroke="none" 
	d="
M157.220642,146.946762 
	C157.409744,146.644302 157.903366,146.340042 158.697372,146.021286 
	C158.506897,146.319504 158.016022,146.632233 157.220642,146.946762 
z"/>
<path fill="#DA8E46" opacity="1.000000" stroke="none" 
	d="
M165.776154,151.186310 
	C165.991226,151.182022 165.991684,151.358658 165.988220,151.800354 
	C165.984283,152.065414 165.747604,152.375183 165.556488,152.408051 
	C165.430771,152.083008 165.496170,151.725113 165.776154,151.186310 
z"/>
<path fill="#32100F" opacity="1.000000" stroke="none" 
	d="
M145.963806,152.636902 
	C145.769592,152.859482 145.602386,152.878525 145.307281,152.645233 
	C145.359009,152.189514 145.548828,151.996155 145.748825,151.812805 
	C145.748825,151.812805 145.888794,151.917923 145.958405,151.971161 
	C146.028000,152.024399 145.990814,152.433365 145.963806,152.636902 
z"/>
<path fill="#DA8E46" opacity="1.000000" stroke="none" 
	d="
M165.053726,152.325256 
	C165.063705,152.561188 164.801651,152.793228 164.264587,153.023499 
	C164.253616,152.788269 164.517654,152.554810 165.053726,152.325256 
z"/>
<path fill="#E17C47" opacity="1.000000" stroke="none" 
	d="
M168.856964,150.732285 
	C168.959839,150.866913 168.509293,151.043381 168.267670,151.035095 
	C168.268707,150.883759 168.511383,150.740707 168.856964,150.732285 
z"/>
<path fill="#090B2C" opacity="1.000000" stroke="none" 
	d="
M145.828003,151.365234 
	C145.548828,151.996155 145.359009,152.189514 145.068176,152.564209 
	C141.765411,154.295441 138.573853,155.855347 135.173096,157.690277 
	C134.963882,157.965286 134.992828,157.983154 134.628723,157.998535 
	C131.985641,159.264572 129.706650,160.515244 127.427650,161.765915 
	C127.427650,161.765915 127.148560,161.748032 126.751541,161.871033 
	C125.470375,162.524094 124.586227,163.054138 123.702080,163.584198 
	C123.702080,163.584198 123.670006,163.650482 123.319351,163.671875 
	C122.000099,164.204483 121.031509,164.715698 120.062912,165.226898 
	C119.605179,165.163177 119.147438,165.099457 118.343292,165.020721 
	C110.116158,160.961243 102.235435,156.916809 94.123459,152.631760 
	C93.603981,150.766541 93.074348,149.143204 93.065704,147.517105 
	C92.995934,134.381958 93.130051,121.244919 92.958389,108.111641 
	C92.906303,104.126511 94.454964,102.935135 98.268623,102.974358 
	C112.400208,103.119713 126.534996,103.097321 140.666962,102.964806 
	C144.364914,102.930138 146.148819,103.945900 146.092041,108.024590 
	C145.892960,122.320366 145.948395,136.619690 145.828003,151.365234 
M102.872665,111.013084 
	C102.085129,113.816666 101.297592,116.620239 100.406044,119.794083 
	C113.623627,119.794083 125.475113,119.794083 137.481598,119.794083 
	C137.481598,116.753868 137.481598,114.068138 137.481598,110.972466 
	C125.992538,110.972466 114.900124,110.972466 102.872665,111.013084 
M108.571030,138.712357 
	C112.000740,138.712357 115.430450,138.712357 119.003365,138.712357 
	C119.003365,135.211380 119.003365,132.369797 119.003365,129.624557 
	C112.821648,129.624557 107.102119,129.624557 101.409752,129.624557 
	C101.409752,132.749512 101.409752,135.479889 101.409752,138.714233 
	C103.710022,138.714233 105.666496,138.714233 108.571030,138.712357 
z"/>
<path fill="#DA8E46" opacity="1.000000" stroke="none" 
	d="
M129.714737,168.161896 
	C131.095856,168.014572 132.166763,168.004227 133.639450,168.013107 
	C131.605530,169.361862 129.169830,170.691406 126.377724,172.036438 
	C127.149055,170.800903 128.276794,169.549881 129.714737,168.161896 
z"/>
<path fill="#DA8E46" opacity="1.000000" stroke="none" 
	d="
M109.111145,170.381531 
	C111.561211,171.192291 114.207733,172.281052 116.890434,173.723724 
	C114.386955,172.938248 111.847282,171.798874 109.111145,170.381531 
z"/>
<path fill="#DA8E46" opacity="1.000000" stroke="none" 
	d="
M97.117966,164.359650 
	C99.569061,165.180511 102.212860,166.283646 104.895576,167.741455 
	C102.393219,166.944748 99.851944,165.793335 97.117966,164.359650 
z"/>
<path fill="#DA8E46" opacity="1.000000" stroke="none" 
	d="
M117.170670,174.370483 
	C119.529846,173.428879 122.126793,172.778732 125.141373,172.202240 
	C122.842148,173.071259 120.125298,173.866592 117.170670,174.370483 
z"/>
<path fill="#DA8E46" opacity="1.000000" stroke="none" 
	d="
M105.090004,168.354889 
	C106.161522,168.536346 107.413483,168.995392 108.792770,169.781525 
	C107.703552,169.616547 106.487000,169.124496 105.090004,168.354889 
z"/>
<path fill="#231612" opacity="1.000000" stroke="none" 
	d="
M76.639465,154.042938 
	C76.925804,154.080994 77.114769,154.499512 77.192780,154.716110 
	C75.960754,154.470612 74.650719,154.008514 73.192505,153.213776 
	C73.458580,152.937790 73.872841,152.994431 74.600418,153.080566 
	C75.393547,153.408325 75.873337,153.706604 76.639465,154.042938 
z"/>
<path fill="#DA8E46" opacity="1.000000" stroke="none" 
	d="
M134.343811,168.029068 
	C134.874832,167.418045 135.722794,166.795944 136.936707,166.285095 
	C136.422012,166.936890 135.541397,167.477432 134.343811,168.029068 
z"/>
<path fill="#231612" opacity="1.000000" stroke="none" 
	d="
M80.596397,156.072662 
	C80.907104,156.099762 81.042107,156.498215 81.082443,156.704620 
	C80.534744,156.740540 79.946724,156.570038 79.206963,156.117859 
	C79.465385,155.905991 79.875534,155.975784 80.596397,156.072662 
z"/>
<path fill="#231612" opacity="1.000000" stroke="none" 
	d="
M78.073914,155.321442 
	C78.085228,155.092438 78.255234,155.064606 78.683296,155.050583 
	C78.941345,155.064392 79.079338,155.479706 79.119820,155.694855 
	C78.851067,155.780899 78.541824,155.651779 78.073914,155.321442 
z"/>
<path fill="#231612" opacity="1.000000" stroke="none" 
	d="
M81.101898,157.057922 
	C81.235718,156.890488 81.414146,156.900986 81.817368,157.058655 
	C81.743622,157.215820 81.445068,157.225845 81.101898,157.057922 
z"/>
<path fill="#DA8E46" opacity="1.000000" stroke="none" 
	d="
M120.325531,165.448029 
	C121.031509,164.715698 122.000099,164.204483 123.292755,163.646439 
	C122.607262,164.289444 121.597710,164.979294 120.325531,165.448029 
z"/>
<path fill="#DA8E46" opacity="1.000000" stroke="none" 
	d="
M124.100464,163.710052 
	C124.586227,163.054138 125.470375,162.524094 126.670074,161.984680 
	C126.987778,162.409912 126.989929,162.844513 126.989105,163.603729 
	C126.157036,163.897537 125.327942,163.866730 124.100464,163.710052 
z"/>
<path fill="#DA8E46" opacity="1.000000" stroke="none" 
	d="
M127.839508,161.822159 
	C129.706650,160.515244 131.985641,159.264572 134.617767,157.987701 
	C132.731064,159.267136 130.491211,160.572769 127.839508,161.822159 
z"/>
<path fill="#E48147" opacity="1.000000" stroke="none" 
	d="
M103.340179,110.992775 
	C114.900124,110.972466 125.992538,110.972466 137.481598,110.972466 
	C137.481598,114.068138 137.481598,116.753868 137.481598,119.794083 
	C125.475113,119.794083 113.623627,119.794083 100.406044,119.794083 
	C101.297592,116.620239 102.085129,113.816666 103.340179,110.992775 
z"/>
<path fill="#DA8E46" opacity="1.000000" stroke="none" 
	d="
M108.097000,138.713287 
	C105.666496,138.714233 103.710022,138.714233 101.409752,138.714233 
	C101.409752,135.479889 101.409752,132.749512 101.409752,129.624557 
	C107.102119,129.624557 112.821648,129.624557 119.003365,129.624557 
	C119.003365,132.369797 119.003365,135.211380 119.003365,138.712357 
	C115.430450,138.712357 112.000740,138.712357 108.097000,138.713287 
z"/>
</svg>